# xmcd
#
# Track frame offsets: 
#        150
#        21008
#        35266
#        55291
#        77913
#        99028
#        123167
#        141521
#        157538
#        175508
#        187519
#        204764
#        218627
#        236765
#        248740
#        267117
#        283491
#
# Disc length: 4019 seconds
#
# Revision: 0
# Processed by: cddbd v1.5.2PL0 Copyright (c) Steve Scherf et al.
# Submitted via: ExactAudioCopy v0.99pb5
#
DISCID=d30fb111
DTITLE=Various Artist - ¶Ë·P¼Ú¬üÃhÂÂª÷¦±
DYEAR=1900
DGENRE=Vocal
TTITLE0=Tears In Heaven
TTITLE1=The Sound Of Silence
TTITLE2=Sailing
TTITLE3=Hotel California
TTITLE4=My heart Will Go On
TTITLE5=Another Day In paradise
TTITLE6=Say You Say Me
TTITLE7=Unchained Melody
TTITLE8=Yesterday Once More
TTITLE9=Only Love
TTITLE10=River Of Babylon
TTITLE11=Pretty Woman
TTITLE12=Can You Feel The Love Tonight
TTITLE13=Only You
TTITLE14=How Deep Is You Love
TTITLE15=Don't Know Mich
TTITLE16=When A Man Loves A Woman
EXTD=
EXTT0=
EXTT1=
EXTT2=
EXTT3=
EXTT4=
EXTT5=
EXTT6=
EXTT7=
EXTT8=
EXTT9=
EXTT10=
EXTT11=
EXTT12=
EXTT13=
EXTT14=
EXTT15=
EXTT16=
PLAYORDER=
